<svg viewBox="0 0 400 300" fill="none" xmlns="http://www.w3.org/2000/svg">
  <defs>
    <linearGradient id="hero-sky" x1="0%" y1="0%" x2="100%" y2="100%">
      <stop offset="0%" stop-color="#e0f2fe"/>
      <stop offset="100%" stop-color="#bae6fd"/>
    </linearGradient>
    <linearGradient id="hero-hammock" x1="0%" y1="0%" x2="0%" y2="100%">
      <stop offset="0%" stop-color="#3b82f6"/>
      <stop offset="100%" stop-color="#2563eb"/>
    </linearGradient>
    <linearGradient id="hero-blanket" x1="0%" y1="0%" x2="100%" y2="0%">
      <stop offset="0%" stop-color="#fbbf24"/>
      <stop offset="100%" stop-color="#f59e0b"/>
    </linearGradient>
  </defs>
  <rect width="400" height="300" fill="url(#hero-sky)"/>
  <ellipse cx="80" cy="50" rx="40" ry="25" fill="white" fill-opacity="0.9"/>
  <ellipse cx="320" cy="70" rx="50" ry="20" fill="white" fill-opacity="0.8"/>
  <ellipse cx="200" cy="40" rx="35" ry="18" fill="white" fill-opacity="0.7"/>
  <path d="M60 90 Q70 85 80 90" stroke="#94a3b8" stroke-width="2" stroke-linecap="round" fill="none" opacity="0.6"/>
  <path d="M300 100 Q310 95 320 100" stroke="#94a3b8" stroke-width="2" stroke-linecap="round" fill="none" opacity="0.6"/>
  <path d="M80 220 Q120 180 200 170 Q280 160 320 200 L340 240 L60 240 Z" fill="url(#hero-hammock)"/>
  <ellipse cx="200" cy="200" rx="100" ry="30" fill="url(#hero-blanket)" opacity="0.9"/>
  <g transform="translate(170, 140)">
    <circle cx="30" cy="10" r="18" fill="#1e293b"/>
    <ellipse cx="30" cy="55" rx="35" ry="25" fill="#334155"/>
    <path d="M55 45 L75 35 L75 55 L55 65 Z" fill="#475569"/>
    <rect x="72" y="38" width="18" height="28" rx="2" fill="#1e293b"/>
    <rect x="74" y="42" width="14" height="20" rx="1" fill="#0f172a"/>
  </g>
</svg>
