<svg viewBox="0 0 400 220" fill="none" xmlns="http://www.w3.org/2000/svg">
  <defs>
    <linearGradient id="bg401k" x1="0%" y1="0%" x2="100%" y2="100%">
      <stop offset="0%" style="stop-color:#0ea5e9;stop-opacity:0.12"/>
      <stop offset="100%" style="stop-color:#06b6d4;stop-opacity:0.08"/>
    </linearGradient>
  </defs>
  <rect width="400" height="220" fill="url(#bg401k)"/>
  <rect x="32" y="32" width="336" height="156" rx="12" fill="white" stroke="#e2e8f0" stroke-width="1"/>
  <!-- Piggy bank / savings -->
  <ellipse cx="120" cy="130" rx="42" ry="38" fill="#f1f5f9" stroke="#cbd5e1"/>
  <rect x="78" y="92" width="84" height="50" rx="4" fill="#f1f5f9" stroke="#cbd5e1"/>
  <circle cx="120" cy="115" r="8" fill="#0ea5e9"/>
  <rect x="115" y="145" width="10" height="12" rx="2" fill="#94a3b8"/>
  <!-- Document / checklist -->
  <rect x="200" y="55" width="140" height="110" rx="6" fill="#f8fafc" stroke="#e2e8f0"/>
  <line x1="220" y1="85" x2="310" y2="85" stroke="#cbd5e1" stroke-width="2"/>
  <line x1="220" y1="105" x2="300" y2="105" stroke="#cbd5e1" stroke-width="2"/>
  <line x1="220" y1="125" x2="290" y2="125" stroke="#cbd5e1" stroke-width="2"/>
  <circle cx="235" cy="155" r="12" fill="#06b6d4" opacity="0.9"/>
  <path d="M230 155 L233 158 L240 150" stroke="white" stroke-width="2" fill="none" stroke-linecap="round" stroke-linejoin="round"/>
  <!-- Growth arrow -->
  <path d="M280 165 L320 125 L360 165" stroke="#0ea5e9" stroke-width="3" fill="none" stroke-linecap="round" stroke-linejoin="round"/>
  <path d="M340 135 L340 95" stroke="#0ea5e9" stroke-width="2" stroke-linecap="round"/>
</svg>
