<svg viewBox="0 0 400 220" fill="none" xmlns="http://www.w3.org/2000/svg">
  <defs>
    <linearGradient id="bgMatch" x1="0%" y1="0%" x2="100%" y2="100%">
      <stop offset="0%" style="stop-color:#f59e0b;stop-opacity:0.1"/>
      <stop offset="100%" style="stop-color:#3b82f6;stop-opacity:0.1"/>
    </linearGradient>
  </defs>
  <rect width="400" height="220" fill="url(#bgMatch)"/>
  <rect x="32" y="32" width="336" height="156" rx="12" fill="white" stroke="#e2e8f0" stroke-width="1"/>
  <!-- Handshake -->
  <path d="M100 140 L120 120 L130 125 L150 105 L165 115 L170 100" stroke="#f59e0b" stroke-width="8" fill="none" stroke-linecap="round" stroke-linejoin="round"/>
  <path d="M300 140 L280 120 L270 125 L250 105 L235 115 L230 100" stroke="#3b82f6" stroke-width="8" fill="none" stroke-linecap="round" stroke-linejoin="round"/>
  <path d="M165 115 L200 115 L235 115" stroke="#94a3b8" stroke-width="4" stroke-linecap="round"/>
  <!-- Percentage / match badge -->
  <circle cx="200" cy="75" r="36" fill="#fef3c7" stroke="#f59e0b"/>
  <text x="200" y="82" fill="#b45309" font-size="22" font-weight="bold" font-family="system-ui,sans-serif" text-anchor="middle">100%</text>
  <text x="200" y="98" fill="#92400e" font-size="10" font-family="system-ui,sans-serif" text-anchor="middle">match</text>
  <!-- Gift box -->
  <rect x="310" y="125" width="40" height="35" rx="4" fill="#3b82f6" opacity="0.9"/>
  <rect x="305" y="120" width="50" height="12" rx="2" fill="#60a5fa"/>
  <path d="M325 120 L325 155" stroke="#2563eb" stroke-width="2"/>
</svg>
